HIERARCHY
ROOT hip
{
  OFFSET 0 0 0
  CHANNELS 6 Xposition Yposition Zposition Zrotation Yrotation Xrotation
  JOINT abdomen
  {
    OFFSET 0 20.6881 -0.73152
    CHANNELS 3 Zrotation Xrotation Yrotation
    JOINT chest
    {
      OFFSET 0 11.7043 -0.48768
      CHANNELS 3 Zrotation Xrotation Yrotation
      JOINT neck
      {
        OFFSET 0 22.1894 -2.19456
        CHANNELS 3 Zrotation Xrotation Yrotation
        JOINT head
        {
          OFFSET -0.24384 7.07133 1.2192
          CHANNELS 3 Zrotation Xrotation Yrotation
          JOINT leftEye
          {
            OFFSET 4.14528 8.04674 8.04672
            CHANNELS 3 Zrotation Xrotation Yrotation
            End Site
            {
              OFFSET 1 0 0
            }
          }
          JOINT rightEye
          {
            OFFSET -3.6576 8.04674 8.04672
            CHANNELS 3 Zrotation Xrotation Yrotation
            End Site
            {
              OFFSET 1 0 0
            }
          }
        }
      }
      JOINT rCollar
      {
        OFFSET -2.68224 19.2634 -4.8768
        CHANNELS 3 Zrotation Xrotation Yrotation
        JOINT rShldr
        {
          OFFSET -8.77824 -1.95073 1.46304
          CHANNELS 3 Zrotation Xrotation Yrotation
          JOINT rForeArm
          {
            OFFSET -28.1742 -1.7115 0.48768
            CHANNELS 3 Zrotation Xrotation Yrotation
            JOINT rHand
            {
              OFFSET -22.5879 0.773209 7.07136
              CHANNELS 3 Zrotation Xrotation Yrotation
              JOINT rThumb1
              {
                OFFSET -1.2192 -0.487915 3.41376
                CHANNELS 3 Zrotation Xrotation Yrotation
                JOINT rThumb2
                {
                  OFFSET -3.37035 -0.52449 3.41376
                  CHANNELS 3 Zrotation Xrotation Yrotation
                  End Site
                  {
                    OFFSET -1.78271 -1.18214 1.43049
                  }
                }
              }
              JOINT rIndex1
              {
                OFFSET -7.75947 0.938293 5.60832
                CHANNELS 3 Zrotation Xrotation Yrotation
                JOINT rIndex2
                {
                  OFFSET -2.54057 -0.884171 1.56538
                  CHANNELS 3 Zrotation Xrotation Yrotation
                  End Site
                  {
                    OFFSET -1.62519 -0.234802 1.16502
                  }
                }
              }
              JOINT rMid1
              {
                OFFSET -8.24714 1.18213 3.41376
                CHANNELS 3 Zrotation Xrotation Yrotation
                JOINT rMid2
                {
                  OFFSET -3.10165 -0.590103 1.0647
                  CHANNELS 3 Zrotation Xrotation Yrotation
                  End Site
                  {
                    OFFSET -2.48547 -0.328903 0.83742
                  }
                }
              }
              JOINT rRing1
              {
                OFFSET -8.82822 0.546677 1.51678
                CHANNELS 3 Zrotation Xrotation Yrotation
                JOINT rRing2
                {
                  OFFSET -2.60934 -0.819778 -0.0198488
                  CHANNELS 3 Zrotation Xrotation Yrotation
                  End Site
                  {
                    OFFSET -2.33842 -0.294052 0.168128
                  }
                }
              }
              JOINT rPinky1
              {
                OFFSET -8.27202 -0.0477905 -0.4584
                CHANNELS 3 Zrotation Xrotation Yrotation
                JOINT rPinky2
                {
                  OFFSET -1.82734 -0.647385 -0.700984
                  CHANNELS 3 Zrotation Xrotation Yrotation
                  End Site
                  {
                    OFFSET -1.69225 -0.51767 -0.607171
                  }
                }
              }
            }
          }
        }
      }
      JOINT lCollar
      {
        OFFSET 2.68224 19.2634 -4.8768
        CHANNELS 3 Zrotation Xrotation Yrotation
        JOINT lShldr
        {
          OFFSET 8.77824 -1.95073 1.46304
          CHANNELS 3 Zrotation Xrotation Yrotation
          JOINT lForeArm
          {
            OFFSET 28.1742 -1.7115 0.48768
            CHANNELS 3 Zrotation Xrotation Yrotation
            JOINT lHand
            {
              OFFSET 22.5879 0.773209 7.07136
              CHANNELS 3 Zrotation Xrotation Yrotation
              JOINT lThumb1
              {
                OFFSET 1.2192 -0.487915 3.41376
                CHANNELS 3 Zrotation Xrotation Yrotation
                JOINT lThumb2
                {
                  OFFSET 3.37035 -0.52449 3.41376
                  CHANNELS 3 Zrotation Xrotation Yrotation
                  End Site
                  {
                    OFFSET 1.78271 -1.18214 1.43049
                  }
                }
              }
              JOINT lIndex1
              {
                OFFSET 7.75947 0.938293 5.60832
                CHANNELS 3 Zrotation Xrotation Yrotation
                JOINT lIndex2
                {
                  OFFSET 2.54057 -0.884171 1.56538
                  CHANNELS 3 Zrotation Xrotation Yrotation
                  End Site
                  {
                    OFFSET 1.62519 -0.234802 1.16502
                  }
                }
              }
              JOINT lMid1
              {
                OFFSET 8.24714 1.18213 3.41376
                CHANNELS 3 Zrotation Xrotation Yrotation
                JOINT lMid2
                {
                  OFFSET 3.10165 -0.590103 1.0647
                  CHANNELS 3 Zrotation Xrotation Yrotation
                  End Site
                  {
                    OFFSET 2.48547 -0.328903 0.83742
                  }
                }
              }
              JOINT lRing1
              {
                OFFSET 8.82822 0.546677 1.51678
                CHANNELS 3 Zrotation Xrotation Yrotation
                JOINT lRing2
                {
                  OFFSET 2.60934 -0.819778 -0.0198488
                  CHANNELS 3 Zrotation Xrotation Yrotation
                  End Site
                  {
                    OFFSET 2.33842 -0.294052 0.168128
                  }
                }
              }
              JOINT lPinky1
              {
                OFFSET 8.27202 -0.0477905 -0.4584
                CHANNELS 3 Zrotation Xrotation Yrotation
                JOINT lPinky2
                {
                  OFFSET 1.82734 -0.647385 -0.700984
                  CHANNELS 3 Zrotation Xrotation Yrotation
                  End Site
                  {
                    OFFSET 1.69225 -0.51767 -0.607171
                  }
                }
              }
            }
          }
        }
      }
    }
  }
  JOINT rButtock
  {
    OFFSET -8.77824 4.35084 1.2192
    CHANNELS 3 Zrotation Xrotation Yrotation
    JOINT rThigh
    {
      OFFSET 0 -1.70687 -2.19456
      CHANNELS 3 Zrotation Xrotation Yrotation
      JOINT rShin
      {
        OFFSET 0 -36.8199 0.73152
        CHANNELS 3 Zrotation Xrotation Yrotation
        JOINT rFoot
        {
          OFFSET 0.73152 -45.1104 -5.12064
          CHANNELS 3 Zrotation Xrotation Yrotation
          End Site
          {
            OFFSET -1.1221 -3.69964 12.103
          }
        }
      }
    }
  }
  JOINT lButtock
  {
    OFFSET 8.77824 4.35084 1.2192
    CHANNELS 3 Zrotation Xrotation Yrotation
    JOINT lThigh
    {
      OFFSET 0 -1.70687 -2.19456
      CHANNELS 3 Zrotation Xrotation Yrotation
      JOINT lShin
      {
        OFFSET 0 -36.8199 0.73152
        CHANNELS 3 Zrotation Xrotation Yrotation
        JOINT lFoot
        {
          OFFSET -0.73152 -45.1104 -5.12064
          CHANNELS 3 Zrotation Xrotation Yrotation
          End Site
          {
            OFFSET 1.1221 -3.69964 12.103
          }
        }
      }
    }
  }
}
MOTION
Frames:	4
Frame Time:	0.00833333
10.7772 85.2343 -197.544 0.0 0.0 0.0 0.705187 -0.00371385 0.0199543 0.194579 -0.00526913 0.033714 1.49889e-14 0.0 8.69683e-17 4.45526e-14 3.18055e-15 3.32343e-16 -0.0 0.0 0.0 -0.0 0.0 0.0 7.35394e-15 -9.70628e-19 1.49089e-16 1.56666e-13 -3.10601e-16 2.5842e-15 2.67932e-12 -8.02692e-13 3.18055e-14 3.06573e-11 7.93921e-13 2.48083e-13 7.23168e-11 -1.62619e-14 6.07486e-13 1.24879e-10 -3.18055e-14 1.02652e-12 7.23199e-11 -1.59028e-14 5.97944e-13 7.73091 5.47488 0.417314 7.2317e-11 -1.60022e-14 6.01125e-13 2.90554 0.965183 0.102902 7.23308e-11 -1.58034e-14 5.98739e-13 10.2786 0.731801 0.0259123 7.23135e-11 -1.63003e-14 6.01125e-13 2.22167 -0.733487 -0.20892 7.35661e-15 -1.74713e-18 -4.96962e-17 1.53531e-13 -2.79541e-16 9.93923e-16 2.67713e-12 8.00903e-13 -1.90833e-14 3.06606e-11 -8.14992e-13 2.98972e-13 7.23202e-11 -2.79908e-14 5.97944e-13 1.24902e-10 -5.08889e-14 1.03766e-12 7.23127e-11 -2.66371e-14 5.97944e-13 -7.73091 5.47488 -0.417314 7.23199e-11 -2.78299e-14 5.91583e-13 -2.90554 0.965183 -0.102902 7.231e-11 -2.74323e-14 5.99535e-13 -10.2786 0.731801 -0.0259123 7.23234e-11 -2.74323e-14 5.91583e-13 -2.22167 -0.733487 0.20892 -2.03217e-16 0.0 -3.88251e-19 1.0377 -4.8484 -0.0878823 -0.00129076 3.22991 0.00171877 -0.508011 1.61857 0.090952 2.03217e-16 0.0 3.88251e-19 0.0358407 -2.16336 0.0186161 0.00864521 -1.63356 0.073052 0.498138 3.79688 -0.134155
10.4926 83.8959 -198.998 -2.5831 3.8432 4.111 1.533 0.28299 -1.03586 1.24084 -0.860745 -0.231775 -0.619331 -0.0454537 -0.765222 0.866762 -3.66501 -1.24191 -0.0 0.0 0.0 -0.0 0.0 0.0 -1.16349e-14 -2.00356e-14 -2.93867e-15 21.1921 3.68769 -0.848017 -3.82043 -1.6634 6.04348 0.0284847 -3.74527 -0.522309 2.86379e-10 -1.85607e-10 2.0803e-10 4.92854e-10 -3.19103e-10 3.61785e-10 2.86381e-10 -1.85606e-10 2.0802e-10 7.73091 5.47488 0.417314 2.86379e-10 -1.85606e-10 2.08028e-10 2.90554 0.965183 0.102902 2.86391e-10 -1.85606e-10 2.08024e-10 10.2786 0.731801 0.0259123 2.86375e-10 -1.85606e-10 2.08028e-10 2.22167 -0.733487 -0.20892 -1.16066e-14 -2.00399e-14 -3.14095e-15 -22.8492 4.22751 1.25199 3.76283 -1.62783 -5.96317 -0.00925293 2.13575 -0.299409 2.75717e-10 -6.02186e-11 -8.78034e-11 4.75762e-10 -1.05141e-10 -1.53484e-10 2.75711e-10 -6.02163e-11 -8.7799e-11 -7.73091 5.47488 -0.417314 2.75719e-10 -6.02164e-11 -8.78089e-11 -2.90554 0.965183 -0.102902 2.75708e-10 -6.02164e-11 -8.78019e-11 -10.2786 0.731801 -0.0259123 2.7572e-10 -6.02155e-11 -8.78089e-11 -2.22167 -0.733487 0.20892 -2.03217e-16 0.0 -3.88251e-19 0.768177 -6.92511 -0.590728 0.0173127 9.05736 0.123086 -0.846448 -2.95843 -3.40576 2.03217e-16 0.0 3.88251e-19 1.37088 -5.10486 -1.25824 -0.0040826 5.18969 -0.0519748 0.542848 -1.45336 0.912252
10.4473 83.8979 -198.995 -2.8061 3.878 4.1083 2.41707 0.585739 -2.15812 2.33725 -1.76766 -0.514314 -1.26824 -0.0877542 -1.57238 1.59502 -7.53994 -2.57191 -0.0 0.0 0.0 -0.0 0.0 0.0 -3.09346e-14 -4.21636e-14 -7.71222e-15 43.7148 7.58956 -1.75519 -7.48287 -3.36211 12.4532 -0.0162748 -7.70609 -1.08229 5.06476e-10 -3.87932e-10 4.3028e-10 8.71149e-10 -6.67033e-10 7.48232e-10 5.06476e-10 -3.8793e-10 4.30271e-10 7.73091 5.47488 0.417314 5.06475e-10 -3.87931e-10 4.30284e-10 2.90554 0.965183 0.102902 5.06484e-10 -3.87931e-10 4.30279e-10 10.2786 0.731801 0.0259123 5.06471e-10 -3.87931e-10 4.30284e-10 2.22167 -0.733487 -0.20892 -3.0877e-14 -4.21716e-14 -7.92033e-15 -47.2055 8.67987 2.60151 7.36569 -3.28406 -12.2689 0.00533582 4.40338 -0.618723 4.84916e-10 -1.25358e-10 -1.94681e-10 8.36507e-10 -2.18885e-10 -3.40014e-10 4.8491e-10 -1.25355e-10 -1.94672e-10 -7.73091 5.47488 -0.417314 4.8492e-10 -1.25354e-10 -1.94686e-10 -2.90554 0.965183 -0.102902 4.84907e-10 -1.25354e-10 -1.9468e-10 -10.2786 0.731801 -0.0259123 4.84917e-10 -1.25352e-10 -1.94686e-10 -2.22167 -0.733487 0.20892 -2.03217e-16 0.0 -3.88251e-19 0.436107 -9.12243 -1.13674 0.00915971 15.221 0.257255 -1.81355 -7.7456 -7.15231 2.03217e-16 0.0 3.88251e-19 2.63309 -8.20644 -2.62537 0.0153836 12.3983 -0.187983 0.799645 -6.99735 2.03273
10.4899 83.906 -199.005 -2.6859 4.0797 4.13 3.2203 0.855243 -3.1478 3.30955 -2.57149 -0.763445 -1.86164 -0.136264 -2.29567 2.11646 -10.9742 -3.78746 -0.0 0.0 0.0 -0.0 0.0 0.0 -4.96125e-14 -6.0105e-14 -9.1142e-15 63.9088 11.0533 -2.5868 -10.425 -4.76854 18.1879 -0.122775 -11.232 -1.59412 7.14505e-10 -5.56788e-10 6.22874e-10 1.2288e-09 -9.57245e-10 1.0833e-09 7.14504e-10 -5.56785e-10 6.22864e-10 7.73091 5.47488 0.417314 7.14504e-10 -5.56786e-10 6.22881e-10 2.90554 0.965183 0.102902 7.14511e-10 -5.56786e-10 6.22875e-10 10.2786 0.731801 0.0259123 7.14499e-10 -5.56786e-10 6.22881e-10 2.22167 -0.733487 -0.20892 -4.9533e-14 -6.01162e-14 -9.32347e-15 -69.1132 12.658 3.83919 10.2875 -4.6723 -17.9439 0.039561 6.40655 -0.903244 6.82512e-10 -1.806e-10 -2.64606e-10 1.17748e-09 -3.15321e-10 -4.62528e-10 6.82507e-10 -1.80596e-10 -2.64593e-10 -7.73091 5.47488 -0.417314 6.82518e-10 -1.80593e-10 -2.6461e-10 -2.90554 0.965183 -0.102902 6.82503e-10 -1.80594e-10 -2.64605e-10 -10.2786 0.731801 -0.0259123 6.82513e-10 -1.80592e-10 -2.6461e-10 -2.22167 -0.733487 0.20892 -2.03217e-16 0.0 -3.88251e-19 0.1178 -11.0753 -1.61419 -0.024126 20.7119 0.38618 -3.21898 -11.9265 -10.6172 2.03217e-16 0.0 3.88251e-19 3.64138 -10.9671 -3.86768 0.0633158 18.8359 -0.31838 1.21624 -11.9378 3.07006
